<?xml version="1.0" encoding="utf-8"?>
<!-- Generator: Adobe Illustrator 26.3.1, SVG Export Plug-In . SVG Version: 6.00 Build 0)  -->
<svg version="1.1" id="Flat" xmlns="http://www.w3.org/2000/svg" xmlns:xlink="http://www.w3.org/1999/xlink" x="0px" y="0px"
	 viewBox="0 0 800 800" style="enable-background:new 0 0 800 800;" xml:space="preserve">
<style type="text/css">
	.st0{fill:#FFFFFF;}
</style>
<path class="st0" d="M712.4,174.2c0-0.5-0.1-0.9-0.1-1.4c-0.1-0.4-0.2-0.8-0.3-1.2c-0.1-0.4-0.2-0.8-0.4-1.2
	c-0.2-0.4-0.3-0.8-0.5-1.1c-0.2-0.3-0.3-0.7-0.6-1c-0.3-0.4-0.5-0.8-0.8-1.1c-0.2-0.2-0.3-0.5-0.5-0.7c-0.1-0.1-0.1-0.1-0.2-0.2
	c-0.3-0.3-0.7-0.6-1-0.9c-0.3-0.2-0.5-0.5-0.8-0.7c-0.4-0.2-0.7-0.5-1.1-0.6c-0.3-0.2-0.7-0.4-1-0.5c-0.4-0.2-0.8-0.3-1.2-0.4
	c-0.4-0.1-0.8-0.3-1.1-0.4c-0.4-0.1-0.7-0.1-1.1-0.2c-0.4-0.1-0.9-0.1-1.3-0.1c-0.1,0-0.2,0-0.3,0H100c-0.1,0-0.2,0-0.3,0
	c-0.5,0-0.9,0.1-1.4,0.1c-0.4,0-0.7,0.1-1.1,0.1c-0.4,0.1-0.8,0.2-1.2,0.4c-0.4,0.1-0.7,0.2-1.1,0.4c-0.4,0.2-0.7,0.4-1.1,0.6
	c-0.3,0.2-0.7,0.4-1,0.6c-0.3,0.2-0.6,0.5-0.9,0.7c-0.4,0.3-0.7,0.6-1,0.9c-0.1,0.1-0.1,0.1-0.2,0.2c-0.2,0.2-0.3,0.4-0.5,0.7
	c-0.3,0.4-0.6,0.7-0.8,1.1c-0.2,0.3-0.4,0.7-0.6,1c-0.2,0.4-0.4,0.7-0.5,1.1c-0.1,0.4-0.3,0.8-0.4,1.2c-0.1,0.4-0.2,0.8-0.3,1.2
	c-0.1,0.4-0.1,0.9-0.1,1.4c0,0.3-0.1,0.5-0.1,0.8v425c0,20.7,16.8,37.5,37.5,37.5h550c20.7,0,37.5-16.8,37.5-37.5V175
	C712.5,174.7,712.4,174.4,712.4,174.2z M667.9,187.5L400,433L132.1,187.5H667.9z M675,612.5H125c-6.9,0-12.5-5.6-12.5-12.5V203.4
	l279.1,255.8c4.8,4.4,12.1,4.4,16.9,0l279.1-255.8V600C687.5,606.9,681.9,612.5,675,612.5z"/>
</svg>
