<?xml version="1.0" encoding="utf-8"?>
<!-- Generator: Adobe Illustrator 26.3.1, SVG Export Plug-In . SVG Version: 6.00 Build 0)  -->
<svg version="1.1" id="Flat" xmlns="http://www.w3.org/2000/svg" xmlns:xlink="http://www.w3.org/1999/xlink" x="0px" y="0px"
	 viewBox="0 0 800 800" style="enable-background:new 0 0 800 800;" xml:space="preserve">
<style type="text/css">
	.st0{fill:#FFFFFF;}
</style>
<path class="st0" d="M325,450c0,13.8-11.2,25-25,25s-25-11.2-25-25s11.2-25,25-25C313.8,425,325,436.2,325,450
	C325,450,325,450,325,450z M500,425c-13.8,0-25,11.2-25,25s11.2,25,25,25c13.8,0,25-11.2,25-25C525,436.2,513.8,425,500,425
	C500,425,500,425,500,425z M749.3,573.5c-50.3,43.7-118.1,76.9-196.2,96c-2.9,0.7-5.9,1.1-8.9,1.1c-14.2,0-27.1-8.1-33.3-20.8
	l-33.6-67.2c-25.6,3.3-51.5,4.9-77.3,4.9c-25.9,0-51.7-1.6-77.3-4.9l-33.6,67.2c-7.7,15.7-25.3,23.9-42.2,19.7
	c-78-19.1-145.9-52.3-196.2-96c-11.2-9.7-15.7-25-11.5-39.2l106.2-353.9c3.2-10.8,11.2-19.6,21.7-23.9
	c30.7-12.6,62.4-22.4,94.8-29.4c18.7-4.1,37.6,6.6,43.6,24.8l21.7,65c48.4-5.8,97.3-5.8,145.7,0l21.7-65
	c6.1-18.2,24.9-28.9,43.6-24.8c32.4,7,64.1,16.8,94.8,29.4c10.5,4.3,18.4,13.1,21.7,23.9l106.2,353.9
	C765,548.4,760.5,563.8,749.3,573.5L749.3,573.5z M736.9,541.4L630.7,187.5c-1.1-3.6-3.7-6.6-7.3-8c-29.3-12-59.6-21.4-90.6-28
	c-6.3-1.4-12.6,2.2-14.6,8.3L498,220.5c24.8,4.1,49.4,10,73.3,17.6c6.6,2.1,10.2,9.2,8.1,15.7c-2.1,6.6-9.2,10.2-15.7,8.1
	c0,0,0,0,0,0c-49.2-16-105.8-24.4-163.6-24.4c-57.9,0-114.5,8.4-163.6,24.4c-6.6,2.1-13.6-1.5-15.7-8c-2.1-6.6,1.5-13.6,8-15.7
	c0,0,0,0,0,0c24-7.7,48.5-13.6,73.3-17.6l-20.2-60.7c-2-6.1-8.3-9.6-14.6-8.3c-31,6.7-61.3,16-90.6,28c-3.5,1.4-6.2,4.4-7.3,8
	L63.1,541.4c-1.4,4.8,0.2,10,4,13.2c47.3,41.1,111.5,72.4,185.7,90.6c5.6,1.3,11.4-1.4,13.9-6.6l30-60c-23-4-45.8-9.6-68.1-16.7
	c-6.6-2.1-10.2-9.2-8.1-15.7c2.1-6.6,9.2-10.2,15.7-8.1c0,0,0,0,0,0c49.2,16,105.8,24.4,163.6,24.4s114.5-8.4,163.6-24.4
	c6.6-2.1,13.6,1.5,15.7,8.1c2.1,6.6-1.5,13.6-8,15.7c-22.3,7.2-45,12.7-68.1,16.7l30,60c2.6,5.2,8.3,7.9,13.9,6.6
	c74.2-18.1,138.4-49.5,185.7-90.6C736.7,551.4,738.3,546.2,736.9,541.4L736.9,541.4z"/>
</svg>
